<?xml version="1.0" standalone="no"?><!DOCTYPE svg PUBLIC "-//W3C//DTD SVG 1.1//EN" "http://www.w3.org/Graphics/SVG/1.1/DTD/svg11.dtd">
<svg t="1753273737832" class="icon" viewBox="0 0 1024 1024" version="1.1" xmlns="http://www.w3.org/2000/svg" p-id="1995" xmlns:xlink="http://www.w3.org/1999/xlink" width="200" height="200">
  <!-- 背景灰色矩形 -->
  <path d="M154 862c-35.8 0-65-29.2-65-65V227c0-35.8 29.2-65 65-65h716c35.8 0 65 29.2 65 65v570c0 35.8-29.2 65-65 65H154z" fill="#E5E5E5" p-id="1996"></path>
  
  <!-- 矩形边框 -->
  <path d="M870 187c10.6 0 20.6 4.2 28.2 11.8 7.6 7.6 11.8 17.6 11.8 28.2v570c0 10.6-4.2 20.6-11.8 28.2-7.6 7.6-17.6 11.8-28.2 11.8H154c-10.6 0-20.6-4.2-28.2-11.8-7.6-7.6-11.8-17.6-11.8-28.2V227c0-10.6 4.2-20.6 11.8-28.2 7.6-7.6 17.6-11.8 28.2-11.8h716m0-50H154c-49.5 0-90 40.5-90 90v570c0 49.5 40.5 90 90 90h716c49.5 0 90-40.5 90-90V227c0-49.5-40.5-90-90-90z" fill="#3A3644" p-id="1997"></path>
  
  <!-- 蓝色装饰 -->
  <path d="M154 837c-7.4 0-14.3-2-20.2-5.5h575.7c77.2 0 140-62.8 140-140V187H870c22.1 0 40 17.9 40 40v570c0 22.1-17.9 40-40 40H154z" fill="#B2C5E4" p-id="1998"></path>
  
  <!-- 邮件内容区域 -->
  <path d="M849.4 456.6l-316.8 155-419.8-233.8 736.6-39.7z" fill="#C4C4C5" p-id="1999"></path>
  
  <!-- 白色邮件信封 -->
  <path d="M529 562.4c-7.7 0-15.3-1.9-22.1-5.5L89 337V227c0-35.8 29.2-65 65-65h716c35.8 0 65 29.2 65 65v127.9L551.1 557c-6.8 3.6-14.4 5.4-22.1 5.4z" fill="#FFFFFF" p-id="2000"></path>
  
  <!-- 邮件信封边框 -->
  <path d="M870 187c10.6 0 20.6 4.2 28.2 11.8 7.6 7.6 11.8 17.6 11.8 28.2v112.8l-370.5 195c-3.2 1.7-6.8 2.6-10.5 2.6-3.6 0-7.2-0.9-10.5-2.6L114 321.9V227c0-10.6 4.2-20.6 11.8-28.2 7.6-7.6 17.6-11.8 28.2-11.8h716m0-50H154c-49.5 0-90 40.5-90 90v125.1l431.3 227c10.6 5.6 22.2 8.3 33.7 8.3 11.6 0 23.2-2.8 33.7-8.3L960 370V227c0-49.5-40.5-90-90-90z" fill="#3A3644" p-id="2001"></path>
  
  <!-- 红色圆点装饰 -->
  <path d="M741 719m-60 0a60 60 0 1 0 120 0 60 60 0 1 0-120 0Z" fill="#F46070" p-id="2002"></path>
  <path d="M741 674c24.8 0 45 20.2 45 45s-20.2 45-45 45-45-20.2-45-45 20.2-45 45-45m0-30c-41.4 0-75 33.6-75 75s33.6 75 75 75 75-33.6 75-75-33.6-75-75-75z" fill="#3A3644" p-id="2003"></path>
  
  <!-- 装饰线条 -->
  <path d="M480 660.6h200v40H480zM420 730.6h260v40H420z" fill="#8E8C93" p-id="2004"></path>
  
  <!-- 顶部装饰条 -->
  <path d="M114 235.1V227c0-22.1 17.9-40 40-40h716c22.1 0 40 17.9 40 40v8.1H114z" fill="#E5E5E5" p-id="2005"></path>
  
  <!-- 主背景蓝色 -->
  <path d="M154 927c-35.8 0-65-29.2-65-65V162c0-35.8 29.2-65 65-65h716c35.8 0 65 29.2 65 65v700c0 35.8-29.2 65-65 65H154z" fill="#4A90E2" p-id="2006"></path>
  
  <!-- 主背景边框 -->
  <path d="M870 122c10.6 0 20.6 4.2 28.2 11.8 7.6 7.6 11.8 17.6 11.8 28.2v700c0 10.6-4.2 20.6-11.8 28.2-7.6 7.6-17.6 11.8-28.2 11.8H154c-10.6 0-20.6-4.2-28.2-11.8-7.6-7.6-11.8-17.6-11.8-28.2V162c0-10.6 4.2-20.6 11.8-28.2 7.6-7.6 17.6-11.8 28.2-11.8h716m0-50H154c-49.5 0-90 40.5-90 90v700c0 49.5 40.5 90 90 90h716c49.5 0 90-40.5 90-90V162c0-49.5-40.5-90-90-90z" fill="#3A3644" p-id="2007"></path>
  
  <!-- GoQGo 文字 - 一行显示 -->
  <text x="512" y="530" text-anchor="middle" font-family="Arial, sans-serif" font-size="100" font-weight="bold" fill="#FFFFFF">GoQGo</text>
  
  <!-- 底部装饰圆点 -->
  <circle cx="512" cy="620" r="8" fill="#FFFFFF" opacity="0.8"/>
  <circle cx="492" cy="640" r="6" fill="#FFFFFF" opacity="0.6"/>
  <circle cx="532" cy="640" r="6" fill="#FFFFFF" opacity="0.6"/>
</svg> 